<?xml version="1.0" encoding="UTF-8" standalone="no"?>
<svg
   width="500"
   zoomAndPan="magnify"
   viewBox="0 0 375 374.99999"
   height="500"
   preserveAspectRatio="xMidYMid"
   version="1.0"
   id="svg2"
   xmlns="http://www.w3.org/2000/svg"
   xmlns:svg="http://www.w3.org/2000/svg">
  <defs
     id="defs1">
    <clipPath
       id="63ec3801fe">
      <path
         d="M 3,28 H 374 V 348.34375 H 3 Z m 0,0"
         clip-rule="nonzero"
         id="path1" />
    </clipPath>
  </defs>
  <g
     clip-path="url(#63ec3801fe)"
     id="g2">
    <path
       fill="#f99029"
       d="m 204.23828,120.04297 h 21.36719 c 0.34765,0 0.6914,-0.0117 1.03906,-0.0352 0.34766,-0.0234 0.69141,-0.0547 1.03516,-0.10156 0.34375,-0.0469 0.6875,-0.10156 1.02734,-0.16797 0.33984,-0.0703 0.67969,-0.14844 1.01172,-0.23828 0.33594,-0.0898 0.66797,-0.19141 0.99609,-0.30078 0.33203,-0.11328 0.65625,-0.23438 0.97657,-0.36719 0.32031,-0.13281 0.63671,-0.27734 0.94921,-0.42969 0.3086,-0.15234 0.61719,-0.3164 0.91797,-0.49218 0.30078,-0.17188 0.59375,-0.35547 0.88282,-0.54688 0.28906,-0.19531 0.57031,-0.39453 0.84375,-0.60547 0.27734,-0.21484 0.54687,-0.43359 0.80468,-0.66015 0.26172,-0.23047 0.51563,-0.46875 0.76172,-0.71485 0.2461,-0.24218 0.48047,-0.49609 0.71094,-0.75781 0.23047,-0.26172 0.44922,-0.52734 0.66016,-0.80469 0.21093,-0.27343 0.41406,-0.55859 0.60546,-0.84765 0.19532,-0.28516 0.37891,-0.58203 0.55079,-0.88282 0.17187,-0.30078 0.33593,-0.60546 0.49218,-0.91796 0.15235,-0.3086 0.29688,-0.625 0.42969,-0.94532 0.13281,-0.32422 0.25391,-0.64843 0.36719,-0.97656 0.10937,-0.32812 0.21094,-0.66016 0.30078,-0.99609 0.0898,-0.33594 0.16797,-0.67188 0.23828,-1.01172 0.0664,-0.33985 0.12109,-0.6836 0.16797,-1.02735 0.0469,-0.34375 0.0781,-0.6914 0.10156,-1.03515 0.0234,-0.34766 0.0352,-0.69531 0.0352,-1.04297 0,-0.34375 -0.0117,-0.69141 -0.0352,-1.03906 -0.0234,-0.34766 -0.0547,-0.69141 -0.10156,-1.03516 -0.043,-0.34375 -0.10156,-0.6875 -0.16797,-1.02734 -0.0703,-0.33985 -0.14844,-0.67969 -0.23828,-1.01172 -0.0898,-0.33594 -0.1875,-0.667971 -0.30078,-0.996096 -0.10938,-0.332032 -0.23438,-0.65625 -0.36719,-0.976563 -0.13281,-0.320312 -0.27344,-0.636719 -0.42969,-0.949219 -0.15234,-0.308593 -0.3164,-0.617187 -0.48828,-0.917968 L 205.34766,37.199219 c -0.79688,-1.378907 -1.75782,-2.632813 -2.88672,-3.761719 -1.125,-1.128906 -2.37891,-2.089844 -3.75782,-2.886719 -1.3789,-0.796875 -2.83984,-1.402343 -4.3789,-1.816406 -1.53906,-0.410156 -3.10547,-0.617187 -4.69922,-0.617187 -1.59375,0 -3.16016,0.207031 -4.69922,0.617187 -1.54297,0.414063 -3,1.015625 -4.38281,1.8125 -1.37891,0.796875 -2.63281,1.761719 -3.75781,2.886719 -1.12891,1.128906 -2.08985,2.378906 -2.88672,3.761718 L 5.355469,329.10547 c -0.558594,0.97265 -0.984375,2 -1.277344,3.08203 -0.289063,1.08203 -0.433594,2.18359 -0.433594,3.30469 0,1.12109 0.144531,2.22656 0.433594,3.30859 0.292969,1.08203 0.71875,2.10938 1.277344,3.08203 0.5625,0.96875 1.238281,1.85156 2.03125,2.64453 0.792969,0.79297 1.675781,1.46875 2.644531,2.03125 0.972656,0.5586 2,0.98438 3.082031,1.27344 1.082031,0.29297 2.183594,0.4375 3.304688,0.4375 h 16.949219 c 1.855468,0 3.703124,-0.12109 5.546874,-0.36328 1.839844,-0.24219 3.65625,-0.60547 5.449219,-1.08594 1.792969,-0.48047 3.546875,-1.07422 5.261719,-1.78515 1.714844,-0.71094 3.375,-1.53125 4.984375,-2.45704 1.605469,-0.92968 3.144531,-1.95703 4.617187,-3.08984 1.472657,-1.12891 2.867188,-2.35156 4.179688,-3.66406 1.3125,-1.3125 2.53125,-2.70313 3.664062,-4.17578 1.128907,-1.47266 2.15625,-3.01563 3.085938,-4.6211 L 182.32031,132.69531 c 0.55469,-0.95703 1.16797,-1.875 1.83985,-2.75 0.67578,-0.8789 1.40234,-1.70703 2.18359,-2.48828 0.78125,-0.78515 1.60937,-1.51172 2.48828,-2.18359 0.87891,-0.67578 1.79297,-1.28906 2.75391,-1.83985 0.95703,-0.55468 1.94531,-1.04296 2.96875,-1.46484 1.01953,-0.42187 2.0664,-0.77734 3.13281,-1.0625 1.06641,-0.28906 2.15234,-0.50391 3.24609,-0.64844 1.09766,-0.14453 2.19922,-0.21484 3.30469,-0.21484 z m 60.44922,173.21875 h -99.91797 c -1.75391,0 -3.48047,0.22656 -5.17969,0.68359 -1.69531,0.45313 -3.30468,1.1211 -4.82812,1.9961 -1.51953,0.8789 -2.90235,1.9375 -4.14453,3.17968 -1.24219,1.24219 -2.30469,2.625 -3.1836,4.14453 l -16.96093,29.33594 c -0.45704,0.79688 -0.8086,1.63281 -1.04297,2.51953 -0.23828,0.88672 -0.35938,1.78516 -0.35938,2.70313 0,0.91797 0.11719,1.8164 0.35547,2.70312 0.23828,0.88672 0.58594,1.72657 1.04297,2.51953 0.45703,0.79297 1.01172,1.51563 1.66016,2.16407 0.64843,0.64843 1.36718,1.19922 2.16015,1.66015 0.79297,0.45703 1.63281,0.80469 2.51953,1.04297 0.88672,0.23438 1.78516,0.35547 2.70313,0.35547 h 217.75 c 1.40234,0 2.78125,-0.18359 4.13672,-0.54687 1.35547,-0.36329 2.64062,-0.89454 3.85937,-1.59766 1.21485,-0.69922 2.31641,-1.54688 3.3086,-2.53906 0.99218,-0.99219 1.83984,-2.09766 2.54296,-3.3125 0.69922,-1.21485 1.23438,-2.5 1.59766,-3.85547 0.36328,-1.35547 0.54297,-2.73828 0.54297,-4.14063 0,-1.40234 -0.18359,-2.78125 -0.54688,-4.13672 -0.36328,-1.35546 -0.89453,-2.64062 -1.59765,-3.85546 l -43.4961,-75.30469 c -0.63281,-1.09375 -1.1914,-2.22656 -1.67578,-3.39453 -0.48437,-1.16797 -0.89062,-2.36328 -1.21875,-3.58594 -0.32422,-1.22266 -0.57031,-2.46094 -0.73828,-3.71484 -0.16406,-1.25391 -0.24609,-2.51172 -0.24609,-3.77735 0,-1.26562 0.082,-2.52344 0.25,-3.77734 0.16406,-1.25391 0.41015,-2.49219 0.73828,-3.71094 0.32812,-1.22266 0.73437,-2.41797 1.21875,-3.58594 0.48437,-1.16797 1.04297,-2.30078 1.67578,-3.39453 l 12.6875,-21.9414 c 0.54297,-0.94141 0.95703,-1.9375 1.23828,-2.98829 0.28125,-1.05078 0.42578,-2.12109 0.42578,-3.21093 0,-1.08594 -0.14062,-2.15625 -0.42187,-3.20703 -0.28125,-1.05079 -0.69531,-2.04688 -1.23828,-2.99219 -0.54297,-0.94141 -1.19922,-1.79688 -1.96875,-2.56641 -0.76953,-0.76953 -1.625,-1.42578 -2.56641,-1.96875 -0.94141,-0.54687 -1.9375,-0.95703 -2.98828,-1.23828 -1.05469,-0.28516 -2.12109,-0.42578 -3.21094,-0.42578 h -91.91797 c -1.42187,0 -2.83984,0.0937 -4.2539,0.28125 -1.41016,0.18359 -2.80078,0.46094 -4.17578,0.82812 -1.375,0.3711 -2.72266,0.82422 -4.03516,1.3711 -1.31641,0.54297 -2.58984,1.17187 -3.82422,1.88281 -1.23437,0.71094 -2.41406,1.5 -3.54297,2.36719 -1.1289,0.86719 -2.19922,1.80078 -3.20703,2.80859 -1.00391,1.00391 -1.94141,2.07422 -2.80859,3.20313 -0.86719,1.1289 -1.65625,2.30859 -2.3711,3.53906 l -13.51172,23.38281 c -0.44921,0.77735 -0.79296,1.59766 -1.02343,2.46485 -0.23438,0.86718 -0.35157,1.75 -0.35157,2.64843 0,0.89844 0.11719,1.78125 0.34766,2.64844 0.23047,0.86719 0.57422,1.6875 1.01953,2.46484 0.44922,0.77735 0.99219,1.48438 1.62891,2.1211 0.63281,0.63281 1.33984,1.17578 2.11719,1.625 0.77734,0.44922 1.59765,0.78906 2.46484,1.02344 0.86719,0.23046 1.75,0.34765 2.64844,0.34765 h 94.28906 c 0.50781,0 1.01562,0.0312 1.51953,0.0977 0.50781,0.0703 1.00781,0.16797 1.5,0.30078 0.49219,0.12891 0.97266,0.29297 1.44141,0.48828 0.47265,0.19531 0.92968,0.42188 1.37109,0.67578 0.44141,0.25391 0.86328,0.53516 1.26953,0.84766 0.40235,0.30859 0.78516,0.64453 1.14453,1.0039 0.36328,0.35938 0.69922,0.74219 1.00782,1.14844 0.3125,0.40235 0.59375,0.82422 0.84765,1.26563 0.25781,0.4414 0.48047,0.89843 0.67578,1.37109 0.19532,0.46875 0.35938,0.94922 0.49219,1.44141 0.13281,0.49218 0.23047,0.99218 0.30078,1.49609 0.0664,0.50781 0.0977,1.01563 0.0977,1.52344 0.004,0.51172 -0.0312,1.01953 -0.0977,1.52344 -0.0664,0.5039 -0.16406,1.0039 -0.29687,1.49609 -0.12891,0.49219 -0.29297,0.97656 -0.48828,1.44531 -0.19532,0.47266 -0.41797,0.92969 -0.67188,1.3711 l -13.41406,23.29687 c -0.78516,1.35938 -1.65235,2.66016 -2.60547,3.90625 -0.95313,1.24609 -1.98438,2.42188 -3.09375,3.53125 -1.10547,1.10938 -2.28125,2.14453 -3.52734,3.09766 -1.24219,0.95703 -2.54297,1.82812 -3.90235,2.61328 -1.35547,0.78515 -2.76172,1.47656 -4.21094,2.07812 -1.44531,0.60157 -2.92968,1.10547 -4.44531,1.51172 -1.51172,0.40625 -3.04687,0.71094 -4.60156,0.91797 -1.55469,0.20313 -3.11719,0.30469 -4.6875,0.30469 z m 0,0"
       fill-opacity="1"
       fill-rule="evenodd"
       id="path2"
       style="fill:#009fb2;fill-opacity:1" />
  </g>
</svg>
