<svg xmlns="http://www.w3.org/2000/svg" xmlns:xlink="http://www.w3.org/1999/xlink" width="500" zoomAndPan="magnify" viewBox="0 0 375 374.999991" height="500" preserveAspectRatio="xMidYMid meet" version="1.0"><defs><clipPath id="4ff92c1372"><path d="M 172.902344 75.890625 L 177.160156 75.890625 L 177.160156 79.496094 L 172.902344 79.496094 Z M 172.902344 75.890625 " clip-rule="nonzero"/></clipPath><clipPath id="5636193e22"><path d="M 177.148438 77.175781 C 175.273438 80.175781 173.476562 79.648438 173.101562 78.976562 C 172.726562 78.375 173.023438 76.5 173.625 76.050781 C 174.226562 75.601562 176.625 76.273438 176.625 76.273438 " clip-rule="nonzero"/></clipPath><clipPath id="8faa3dbf02"><path d="M 121 10 L 246 10 L 246 135 L 121 135 Z M 121 10 " clip-rule="nonzero"/></clipPath><clipPath id="ea25decef1"><path d="M 160.304688 0.00390625 L 351.3125 97.601562 L 214.46875 365.414062 L 23.460938 267.816406 Z M 160.304688 0.00390625 " clip-rule="nonzero"/></clipPath><clipPath id="c59104abdd"><path d="M 160.304688 0.00390625 L 351.3125 97.601562 L 214.46875 365.414062 L 23.460938 267.816406 Z M 160.304688 0.00390625 " clip-rule="nonzero"/></clipPath><clipPath id="604a633104"><path d="M 210 162 L 246 162 L 246 359 L 210 359 Z M 210 162 " clip-rule="nonzero"/></clipPath><clipPath id="ef866e38e0"><path d="M 160.304688 0.00390625 L 351.3125 97.601562 L 214.46875 365.414062 L 23.460938 267.816406 Z M 160.304688 0.00390625 " clip-rule="nonzero"/></clipPath><clipPath id="7dc4708b2e"><path d="M 160.304688 0.00390625 L 351.3125 97.601562 L 214.46875 365.414062 L 23.460938 267.816406 Z M 160.304688 0.00390625 " clip-rule="nonzero"/></clipPath><clipPath id="1ccd96daa7"><path d="M 183 199 L 209 199 L 209 298 L 183 298 Z M 183 199 " clip-rule="nonzero"/></clipPath><clipPath id="aef323e101"><path d="M 160.304688 0.00390625 L 351.3125 97.601562 L 214.46875 365.414062 L 23.460938 267.816406 Z M 160.304688 0.00390625 " clip-rule="nonzero"/></clipPath><clipPath id="83a151089a"><path d="M 160.304688 0.00390625 L 351.3125 97.601562 L 214.46875 365.414062 L 23.460938 267.816406 Z M 160.304688 0.00390625 " clip-rule="nonzero"/></clipPath><clipPath id="87f8e189d0"><path d="M 126 183 L 176 183 L 176 321 L 126 321 Z M 126 183 " clip-rule="nonzero"/></clipPath><clipPath id="5d2cb43a62"><path d="M 160.304688 0.00390625 L 351.3125 97.601562 L 214.46875 365.414062 L 23.460938 267.816406 Z M 160.304688 0.00390625 " clip-rule="nonzero"/></clipPath><clipPath id="a013627bfc"><path d="M 160.304688 0.00390625 L 351.3125 97.601562 L 214.46875 365.414062 L 23.460938 267.816406 Z M 160.304688 0.00390625 " clip-rule="nonzero"/></clipPath></defs><g clip-path="url(#4ff92c1372)"><g clip-path="url(#5636193e22)"><path fill="#545454" d="M 170.101562 73.050781 L 180.230469 73.050781 L 180.230469 82.875 L 170.101562 82.875 Z M 170.101562 73.050781 " fill-opacity="1" fill-rule="nonzero"/></g></g><g clip-path="url(#8faa3dbf02)"><g clip-path="url(#ea25decef1)"><g clip-path="url(#c59104abdd)"><path fill="#ff5757" d="M 240.171875 59.300781 C 207.617188 54.699219 195.433594 45.058594 183.492188 14.429688 C 182.355469 11.507812 179.621094 9.859375 176.527344 10.214844 C 173.433594 10.570312 171.15625 12.8125 170.71875 15.910156 C 166.125 48.460938 156.480469 60.640625 125.847656 72.582031 C 122.929688 73.722656 121.277344 76.453125 121.636719 79.546875 C 121.996094 82.644531 124.230469 84.925781 127.335938 85.363281 C 159.886719 89.960938 172.066406 99.605469 184.011719 130.230469 C 185.148438 133.152344 187.878906 134.804688 190.976562 134.441406 C 194.070312 134.085938 196.347656 131.84375 196.785156 128.746094 C 201.378906 96.195312 211.023438 84.015625 241.65625 72.074219 C 244.570312 70.933594 246.226562 68.203125 245.867188 65.109375 C 245.507812 62.011719 243.269531 59.738281 240.171875 59.300781 Z M 240.171875 59.300781 " fill-opacity="1" fill-rule="nonzero"/></g></g></g><g clip-path="url(#604a633104)"><g clip-path="url(#ef866e38e0)"><g clip-path="url(#7dc4708b2e)"><path fill="#ff5757" d="M 223.664062 165.691406 C 243.003906 212.75 244.609375 266.148438 228.882812 314.484375 C 224.394531 328.285156 218.390625 341.550781 211.148438 354.113281 C 209.335938 357.257812 214.355469 359.820312 216.167969 356.679688 C 242.140625 311.609375 251.007812 257.402344 241.507812 206.308594 C 238.808594 191.789062 234.648438 177.613281 229.03125 163.949219 C 227.660156 160.613281 222.28125 162.324219 223.667969 165.6875 Z M 223.664062 165.691406 " fill-opacity="1" fill-rule="nonzero"/></g></g></g><g clip-path="url(#1ccd96daa7)"><g clip-path="url(#aef323e101)"><g clip-path="url(#83a151089a)"><path fill="#ff5757" d="M 202.625 202.019531 C 203.296875 218.453125 202.472656 234.992188 199.574219 251.203125 C 197.015625 265.515625 193.007812 280.433594 184.539062 292.472656 C 182.476562 295.410156 186.621094 299.242188 188.699219 296.28125 C 197.503906 283.753906 202.035156 268.726562 204.824219 253.8125 C 208.03125 236.679688 208.957031 219.09375 208.253906 201.695312 C 208.109375 198.070312 202.476562 198.382812 202.625 202.019531 Z M 202.625 202.019531 " fill-opacity="1" fill-rule="nonzero"/></g></g></g><g clip-path="url(#87f8e189d0)"><g clip-path="url(#5d2cb43a62)"><g clip-path="url(#a013627bfc)"><path fill="#ff5757" d="M 170.25 186.535156 C 167.136719 232.707031 152.117188 277.5625 127.101562 316.460938 C 125.136719 319.511719 130.171875 322.054688 132.121094 319.027344 C 157.710938 279.234375 172.695312 233.398438 175.878906 186.210938 C 176.125 182.601562 170.492188 182.941406 170.25 186.535156 Z M 170.25 186.535156 " fill-opacity="1" fill-rule="nonzero"/></g></g></g></svg>